<svg class="icon" viewBox="0 0 1024 1024" xmlns="http://www.w3.org/2000/svg" width="200" height="200"><defs><style/></defs><path d="M393.013 330.572l-1.086-281.403c-.48-21.68-18.382-34.696-40.102-35.175h-29.147c-21.656-.48-38.856 18.39-38.377 40.054l1.214 153.03L92.662 17.109a53.486 53.486 0 0 0-75.853 0 53.98 53.98 0 0 0 0 76.068l191.088 189.356-146.49.59c-21.656-.55-41.747 14.478-45.037 40.087v27.645c.55 21.728 18.446 39.687 40.102 40.166l279.71-1.653c.415.04.694.2 1.061.2l19.62.431a36.94 36.94 0 0 0 27.438-11.02c7.027-6.979 9.622-16.737 9.335-27.645l-2.092-19.683c0-.384 1.453-.647 1.453-1.086h.016zm419.412 408.943l146.291-.583c21.664.48 41.715-12.848 45.037-38.45v-27.644c-.543-21.736-18.502-39.687-40.094-40.246l-276.132 1.677c-.423 0-.687-.168-1.102-.168l-19.572-.48a37.052 37.052 0 0 0-27.51 11.029c-7.066 6.93-9.59 16.72-9.374 27.629l2.156 19.644c.04.479-1.413.758-1.413 1.126l1.125 277.066c.551 21.664 18.446 34.64 40.103 35.111l27.549.048c21.6.495 38.864-18.446 38.33-40.134l-1.222-149.74 192.853 191.216a53.422 53.422 0 0 0 75.812 0 53.877 53.877 0 0 0 0-76.044L812.425 739.507v.008zm-428.132-94.857a37.02 37.02 0 0 0-27.446-11.036l-19.62.479c-.399 0-.654.176-1.093.176L56.448 632.6c-21.656.559-39.583 18.51-40.102 40.246v27.645c3.266 25.6 23.357 38.92 44.981 38.441l148.16.48L16.785 930.483c-20.921 20.97-20.921 55.018 0 76.052a53.454 53.454 0 0 0 75.829 0l192.885-189.97-1.238 150.65c-.48 21.736 16.721 40.67 38.337 40.126h29.147c21.72-.55 39.623-13.455 40.102-35.183l1.126-279.134c0-.4-1.453-.655-1.453-1.086l2.092-19.644c.24-10.908-2.284-20.698-9.311-27.63h-.008zm255.17-265.632a36.892 36.892 0 0 0 27.494 10.972l19.564-.431c.439 0 .703-.16 1.142-.224l280.124 1.677c21.656-.495 39.552-18.462 40.095-40.19l.071-27.653c-3.33-25.64-23.452-40.597-45.037-40.126l-148.646-.583 190.984-189.372c21.002-20.945 21.002-54.93.064-75.964a53.43 53.43 0 0 0-75.812 0l-192.853 191.16L737.89 54.08c.52-21.664-16.745-40.605-38.345-40.126h-27.55c-21.664.551-39.559 13.52-40.102 35.183l-1.11 281.458c0 .432 1.438.703 1.438 1.086l-2.132 19.684c-.224 10.908 2.3 20.666 9.374 27.653v.008z"/></svg>