<svg class="icon" viewBox="0 0 1024 1024" xmlns="http://www.w3.org/2000/svg" width="200" height="200"><defs><style/></defs><path d="M307.762 416L416 307.699 226.818 118.339 345.673.004H.284l-.28 345.093 118.055-118.919 189.703 189.823zM905.94 797.807L716.206 607.999 608 716.286l189.183 189.375-118.823 118.335h345.389l.248-345.093-118.055 118.903zM716.302 416l189.343-189.183 118.351 118.84V.307L678.926.004l118.912 118.08-189.839 189.694L716.302 416zm-408.62 191.998L118.339 797.206.004 678.35v345.381l345.093.264-118.919-118.055 189.823-189.703L307.68 608z"/></svg>