<svg class="icon" viewBox="0 0 1024 1024" xmlns="http://www.w3.org/2000/svg" width="200" height="200"><defs><style/></defs><path d="M876.678 832.429H848.8v-447A319.14 319.14 0 0 0 565.713 68.116V38.194a35.906 35.906 0 1 0-71.739 0v29.921A319.212 319.212 0 0 0 210.887 385.43v446.999h-27.878a35.906 35.906 0 1 0 0 71.812h274.986v47.947a71.739 71.739 0 1 0 143.55 0v-47.947h275.06a35.906 35.906 0 1 0 0-71.812zm-99.69 0H282.626v-447a247.254 247.254 0 0 1 247.181-247.4 247.254 247.254 0 0 1 247.181 247.4v447z"/></svg>