<?xml version="1.0" standalone="no"?><!DOCTYPE svg PUBLIC "-//W3C//DTD SVG 1.1//EN" "http://www.w3.org/Graphics/SVG/1.1/DTD/svg11.dtd"><svg t="1596184942091" class="icon" viewBox="0 0 1024 1024" version="1.1" xmlns="http://www.w3.org/2000/svg" p-id="2828" xmlns:xlink="http://www.w3.org/1999/xlink" width="200" height="200"><defs><style type="text/css"></style></defs><path d="M876.678238 832.428982h-27.878144V385.429941A319.139071 319.139071 0 0 0 565.712864 68.115356v-29.921569a35.905882 35.905882 0 1 0-71.738785 0v29.921569A319.21205 319.21205 0 0 0 210.88685 385.429941v446.999041h-27.878144a35.905882 35.905882 0 1 0 0 71.811765H457.995218v47.947489a71.738785 71.738785 0 1 0 143.550549 0v-47.947489h275.059492a35.905882 35.905882 0 1 0 0-71.811765z m-99.689908 0H282.625635V385.429941a247.254327 247.254327 0 0 1 247.181347-247.400286 247.254327 247.254327 0 0 1 247.181348 247.400286v446.999041z" p-id="2829"></path></svg>